<svg xmlns="http://www.w3.org/2000/svg" version="1.1" xmlns:xlink="http://www.w3.org/1999/xlink" xmlns:svgjs="http://svgjs.dev/svgjs" width="2000" height="600" preserveAspectRatio="none" viewBox="0 0 2000 600"><g mask="url(&quot;#SvgjsMask1039&quot;)" fill="none"><rect width="2000" height="600" x="0" y="0" fill="rgba(33, 34, 58, 1)"></rect><path d="M536.81 136.54a55.33 55.33 0 1 0-107.26 27.22z" fill="rgba(255, 134, 0, 0.5)"></path><path d="M1345.82 389.6L1380.83 389.6L1380.83 424.61L1345.82 424.61z" fill="rgba(0, 168, 120, 0.49)"></path><path d="M437.88-6.4a18.59 18.59 0 1 0-7.54 36.41z" fill="rgba(255, 134, 0, 0.5)"></path><path d="M1980.75 315.9L1987.34 315.9L1987.34 318.56L1980.75 318.56z" stroke="rgba(255, 134, 0, 0.5)"></path><path d="M287.97 257.49L325.02 257.49L325.02 294.54L287.97 294.54z" fill="rgba(255, 134, 0, 0.5)"></path><path d="M602.41 474.14 a6.22 6.22 0 1 0 12.44 0 a6.22 6.22 0 1 0 -12.44 0z" stroke="rgba(221, 221, 221, 0.47)"></path><path d="M1827.51 330.66 a39.26 39.26 0 1 0 78.52 0 a39.26 39.26 0 1 0 -78.52 0z" stroke="rgba(255, 134, 0, 0.5)"></path><path d="M367.11 9.24L404.88 9.24L404.88 14.75L367.11 14.75z" stroke="rgba(0, 168, 120, 0.49)"></path><path d="M1611.17 110.7L1639.31 110.7L1639.31 138.84L1611.17 138.84z" stroke="rgba(255, 134, 0, 0.5)"></path><path d="M1605.44 217.91 a3.96 3.96 0 1 0 7.92 0 a3.96 3.96 0 1 0 -7.92 0z" fill="rgba(0, 168, 120, 0.49)"></path><path d="M648.05 602.2a48.39 48.39 0 1 0 96.66-4.66z" fill="rgba(255, 134, 0, 0.5)"></path><path d="M332.53 549.84L340.06 549.84L340.06 554.49L332.53 554.49z" stroke="rgba(0, 168, 120, 0.49)"></path><path d="M1850.87 82.95 a54.86 54.86 0 1 0 109.72 0 a54.86 54.86 0 1 0 -109.72 0z" fill="rgba(255, 134, 0, 0.5)"></path><path d="M1292.16 181.46L1328.31 181.46L1328.31 223.08L1292.16 223.08z" fill="rgba(255, 134, 0, 0.5)"></path><path d="M900.07 150.73a34.92 34.92 0 1 0-0.11 69.84z" fill="rgba(221, 221, 221, 0.47)"></path><path d="M837.62 416.14 a10.66 10.66 0 1 0 21.32 0 a10.66 10.66 0 1 0 -21.32 0z" fill="rgba(0, 168, 120, 0.49)"></path><path d="M1779.55 417.87 a9.44 9.44 0 1 0 18.88 0 a9.44 9.44 0 1 0 -18.88 0z" fill="rgba(0, 168, 120, 0.49)"></path><path d="M1120.86 74.11L1155.94 74.11L1155.94 109.19L1120.86 109.19z" fill="rgba(0, 168, 120, 0.49)"></path><path d="M792.66 518.85L795.74 518.85L795.74 549.93L792.66 549.93z" stroke="rgba(255, 134, 0, 0.5)"></path><path d="M318.93 5.69L375.08 5.69L375.08 61.84L318.93 61.84z" stroke="rgba(0, 168, 120, 0.49)"></path><path d="M822.21 172.82 a46.76 46.76 0 1 0 93.52 0 a46.76 46.76 0 1 0 -93.52 0z" stroke="rgba(221, 221, 221, 0.47)"></path><path d="M1022.76 36.64a39.41 39.41 0 1 0-64.24-45.68z" fill="rgba(255, 134, 0, 0.5)"></path><path d="M404.98 378.98L413.43 378.98L413.43 387.43L404.98 387.43z" stroke="rgba(0, 168, 120, 0.49)"></path><path d="M675.86 219.99 a22.31 22.31 0 1 0 44.62 0 a22.31 22.31 0 1 0 -44.62 0z" stroke="rgba(0, 168, 120, 0.49)"></path><path d="M345.03 463.62L354.57 463.62L354.57 471.3L345.03 471.3z" stroke="rgba(221, 221, 221, 0.47)"></path><path d="M1294.94 541.7L1340.15 541.7L1340.15 555.51L1294.94 555.51z" stroke="rgba(221, 221, 221, 0.47)"></path><path d="M665.66 409.97L706.87 409.97L706.87 441.72L665.66 441.72z" stroke="rgba(0, 168, 120, 0.49)"></path><path d="M55.54 196.1L104.75 196.1L104.75 208.17L55.54 208.17z" fill="rgba(0, 168, 120, 0.49)"></path><path d="M1971.41 165.8L1989.74 165.8L1989.74 197.86L1971.41 197.86z" stroke="rgba(255, 134, 0, 0.5)"></path><path d="M1878.96 381.43 a2.7 2.7 0 1 0 5.4 0 a2.7 2.7 0 1 0 -5.4 0z" stroke="rgba(221, 221, 221, 0.47)"></path><path d="M352.03 373.06L374.75 373.06L374.75 392.76L352.03 392.76z" stroke="rgba(0, 168, 120, 0.49)"></path><path d="M1008.25 553.25a20.48 20.48 0 1 0 1.68 40.92z" fill="rgba(221, 221, 221, 0.47)"></path><path d="M1577.37 542.1L1583.63 542.1L1583.63 556.67L1577.37 556.67z" stroke="rgba(0, 168, 120, 0.49)"></path><path d="M347.41 574.61L375.11 574.61L375.11 623.38L347.41 623.38z" fill="rgba(255, 134, 0, 0.5)"></path><path d="M1641.5 314.18a30.05 30.05 0 1 0-5.57 59.84z" fill="rgba(255, 134, 0, 0.5)"></path><path d="M857.21 20.66a3.42 3.42 0 1 0 5.56-3.97z" stroke="rgba(221, 221, 221, 0.47)"></path><path d="M1131.33 264.15a59.08 59.08 0 1 0 26.66 115.11z" stroke="rgba(0, 168, 120, 0.49)"></path><path d="M937.79 377.72 a11.87 11.87 0 1 0 23.74 0 a11.87 11.87 0 1 0 -23.74 0z" stroke="rgba(221, 221, 221, 0.47)"></path><path d="M660.69 93.24L702.06 93.24L702.06 134.61L660.69 134.61z" stroke="rgba(221, 221, 221, 0.47)"></path><path d="M1036.44 395.27 a2.25 2.25 0 1 0 4.5 0 a2.25 2.25 0 1 0 -4.5 0z" stroke="rgba(255, 134, 0, 0.5)"></path><path d="M1377.68 209.67L1392.28 209.67L1392.28 224.27L1377.68 224.27z" fill="rgba(0, 168, 120, 0.49)"></path><path d="M1312.91 25.7L1315.35 25.7L1315.35 28.14L1312.91 28.14z" fill="rgba(221, 221, 221, 0.47)"></path></g><defs><mask id="SvgjsMask1039"><rect width="2000" height="600" fill="#ffffff"></rect></mask></defs></svg>