<svg xmlns="http://www.w3.org/2000/svg" version="1.1" xmlns:xlink="http://www.w3.org/1999/xlink" xmlns:svgjs="http://svgjs.dev/svgjs" width="2000" height="600" preserveAspectRatio="none" viewBox="0 0 2000 600"><g mask="url(&quot;#SvgjsMask1069&quot;)" fill="none"><rect width="2000" height="600" x="0" y="0" fill="rgba(34, 34, 34, 1)"></rect><path d="M60 600L660 0L1260 0L660 600z" fill="url(&quot;#SvgjsLinearGradient1070&quot;)"></path><path d="M484 600L1084 0L1720 0L1120 600z" fill="url(&quot;#SvgjsLinearGradient1070&quot;)"></path><path d="M941 600L1541 0L1800.5 0L1200.5 600z" fill="url(&quot;#SvgjsLinearGradient1070&quot;)"></path><path d="M1932 600L1332 0L1110 0L1710 600z" fill="url(&quot;#SvgjsLinearGradient1071&quot;)"></path><path d="M1542 600L942 0L651 0L1251 600z" fill="url(&quot;#SvgjsLinearGradient1071&quot;)"></path><path d="M1050 600L450 0L-19.5 0L580.5 600z" fill="url(&quot;#SvgjsLinearGradient1071&quot;)"></path><path d="M1485.1218050900684 600L2000 85.12180509006828L2000 600z" fill="url(&quot;#SvgjsLinearGradient1070&quot;)"></path><path d="M0 600L514.8781949099317 600L 0 85.12180509006828z" fill="url(&quot;#SvgjsLinearGradient1071&quot;)"></path></g><defs><mask id="SvgjsMask1069"><rect width="2000" height="600" fill="#ffffff"></rect></mask><linearGradient x1="0%" y1="100%" x2="100%" y2="0%" id="SvgjsLinearGradient1070"><stop stop-color="rgba(33, 36, 99, 1)" offset="0"></stop><stop stop-opacity="0" stop-color="rgba(33, 36, 99, 1)" offset="0.66"></stop></linearGradient><linearGradient x1="100%" y1="100%" x2="0%" y2="0%" id="SvgjsLinearGradient1071"><stop stop-color="rgba(33, 36, 99, 1)" offset="0"></stop><stop stop-opacity="0" stop-color="rgba(33, 36, 99, 1)" offset="0.66"></stop></linearGradient></defs></svg>