<svg xmlns="http://www.w3.org/2000/svg" version="1.1" xmlns:xlink="http://www.w3.org/1999/xlink" xmlns:svgjs="http://svgjs.dev/svgjs" width="1440" height="560" preserveAspectRatio="none" viewBox="0 0 1440 560"><g mask="url(&quot;#SvgjsMask1182&quot;)" fill="none"><rect width="1440" height="560" x="0" y="0" fill="rgba(0, 0, 30, 1)"></rect><path d="M0,303.356C68.013,311.163,141.302,346.273,201,312.762C260.794,279.197,269.78,198.587,297.985,136.085C326.048,73.898,372.462,15.302,365.877,-52.605C359.205,-121.408,312.518,-179.706,262.715,-227.644C215.788,-272.813,153.592,-292.56,92.664,-315.585C26.688,-340.518,-38.595,-380.411,-107.976,-367.731C-179.657,-354.631,-247.753,-309.48,-284.629,-246.632C-319.785,-186.716,-297.285,-112.382,-298.557,-42.926C-299.655,17.02,-313.866,77.5,-291.585,133.162C-268.743,190.225,-226.466,238.804,-173.382,269.788C-121.491,300.076,-59.692,296.504,0,303.356" fill="#000014"></path><path d="M1440 1112.089C1545.654 1123.9940000000001 1648.1390000000001 1080.1100000000001 1741.151 1028.6 1839.019 974.4 1932.714 907.687 1986.359 809.514 2042.069 707.561 2051.256 589.052 2044.719 473.055 2037.713 348.74199999999996 2030.231 213.3 1947.5140000000001 120.23700000000002 1865.047 27.45500000000004 1729.824 13.17100000000005 1609.354-16.765999999999963 1493.721-45.500999999999976 1372.801-90.97299999999996 1260.7649999999999-50.41899999999998 1150.545-10.523000000000025 1104.938 115.214 1020.403 196.41699999999997 924.735 288.315 736.831 325.571 731.366 458.11400000000003 725.705 595.405 906.088 659.308 997.071 762.279 1058.564 831.874 1106.638 907.755 1179.52 965.3140000000001 1259.349 1028.3600000000001 1338.9180000000001 1100.699 1440 1112.089" fill="#000029"></path></g><defs><mask id="SvgjsMask1182"><rect width="1440" height="560" fill="#ffffff"></rect></mask></defs></svg>