<svg xmlns="http://www.w3.org/2000/svg" version="1.1" xmlns:xlink="http://www.w3.org/1999/xlink" xmlns:svgjs="http://svgjs.dev/svgjs" width="2000" height="600" preserveAspectRatio="none" viewBox="0 0 2000 600"><g mask="url(&quot;#SvgjsMask1012&quot;)" fill="none"><rect width="2000" height="600" x="0" y="0" fill="rgba(34, 34, 60, 1)"></rect><path d="M80.77 150C73.77 119.93 15.96 157.75 0 128.12C-24.43 82.75 -28.74 35.32 0 0C23.38 -28.74 69.6 -25.98 104.24 0C144.6 30.27 124.7 112.5 150 112.5C176.31 112.5 164.16 32.46 207.45 0C239.16 -23.79 253.73 0 300 0C375 0 375 0 450 0C500.89 0 515.37 -23.42 551.79 0C590.37 24.8 566.16 96.43 600 96.43C646.51 96.43 652.65 38.48 712.5 0C727.65 -9.74 731.25 0 750 0C825 0 825 0 900 0C975 0 975 0 1050 0C1125 0 1125 0 1200 0C1275 0 1275 0 1350 0C1425 0 1425 0 1500 0C1563.75 0 1600.14 -34.43 1627.5 0C1659.73 40.57 1648.38 85.45 1619.18 150C1584.63 226.36 1564 222.03 1500 281.82C1483.72 297.03 1464.4 280.55 1458.62 300C1439.4 364.64 1450.31 374.98 1450 450C1449.69 524.98 1486.54 556.27 1457.39 600C1436.54 631.27 1403.7 600 1350 600C1275 600 1275 600 1200 600C1145.89 600 1141.32 612.11 1091.77 600C1066.32 593.78 1074.49 563.33 1050 563.33C1000.38 563.33 997.63 586.78 943.55 600C922.63 605.11 921.78 600 900 600C855 600 854.63 603.67 810 600C779.63 597.5 780.44 588.89 750 587.67C675.44 584.67 674.74 586.94 600 591.55C574.74 593.11 575.24 598.58 550 600C500.24 602.8 500 600 450 600C375 600 375 600 300 600C225 600 225 600 150 600C123.22 600 122.85 603.55 96.43 600C47.85 593.47 20.8 612.2 0 579.85C-27.42 537.2 0 514.92 0 450C0 387.86 -14.47 379.96 0 325.71C5.53 304.96 30.54 320.58 40 300C70.92 232.72 93.77 205.87 80.77 150" stroke="rgba(221, 221, 221, 0.38)" stroke-width="2"></path><path d="M300 145C290.53 145 278.57 144.44 278.57 150C278.57 157.66 293.09 171.43 300 171.43C304.91 171.43 302.21 160.54 302.21 150C302.21 147.33 302.35 145 300 145" stroke="rgba(221, 221, 221, 0.38)" stroke-width="2"></path><path d="M1200 110C1148.43 124.83 1100 121.72 1100 150C1100 184.58 1141.6 217.39 1200 235.71C1266.6 256.6 1289.6 255.29 1350 228.41C1385.89 212.44 1392.59 188.81 1392.59 150C1392.59 113.67 1383.96 85.18 1350 78.13C1287.66 65.18 1273.43 88.89 1200 110" stroke="rgba(221, 221, 221, 0.38)" stroke-width="2"></path><path d="M1800 105C1735.39 49.23 1664.52 29.32 1664.52 0C1664.52 -23.18 1732.26 0 1800 0C1875 0 1875 0 1950 0C2025 0 2062.5 -37.5 2100 0C2137.5 37.5 2100 75 2100 150C2100 225 2100 225 2100 300C2100 349.47 2129.75 381.63 2100 398.94C2054.75 425.26 2014.8 370.5 1950 387.27C1916.17 396.03 1902.74 415.17 1902.74 450C1902.74 510.42 1907.44 571.46 1950 577.78C2006.07 586.1 2055.16 472.63 2100 479.27C2130.16 483.74 2133.45 573.08 2100 600C2058.45 633.45 2025 600 1950 600C1875 600 1875 600 1800 600C1725 600 1725 600 1650 600C1596.3 600 1542.61 626.37 1542.61 600C1542.61 556.88 1594.98 529.22 1650 461.03C1655.5 454.22 1661.59 458.32 1663.64 450C1681.4 377.8 1654.61 362.35 1689.62 300C1722.79 240.92 1749.66 257.92 1800 207.14C1824 182.92 1838.3 177.47 1838.3 150C1838.3 126.4 1822.28 124.23 1800 105" stroke="rgba(221, 221, 221, 0.38)" stroke-width="2"></path><path d="M600 225C583.9 225 585.58 265.36 585.58 300C585.58 308.07 591.61 310.42 600 310.42C627.66 310.42 657.69 316.34 657.69 300C657.69 273.63 619.95 225 600 225" stroke="rgba(221, 221, 221, 0.38)" stroke-width="2"></path><path d="M40.68 0C40.68 15.33 11.45 50 0 50C-8.89 50 -11.22 13.78 0 0C9.12 -11.22 40.68 -9.67 40.68 0" stroke="rgba(221, 221, 221, 0.38)" stroke-width="2"></path><path d="M300 20C294.98 9.27 287.23 6.5 287.23 0C287.23 -3.5 293.62 0 300 0C330 0 330.38 -3.7 360 0C405.38 5.67 415.85 -7.98 450 18.75C511.66 67.02 535.19 77.23 551.61 150C566.92 217.86 499.14 237.12 513.46 300C523.34 343.37 551.06 353.56 600 362.5C669.33 375.17 679.88 364.55 750 343.22C782.59 333.3 805.43 323.47 805.43 300C805.43 273.53 777.34 272.02 750 243.33C705.88 197.02 662.5 195.51 662.5 150C662.5 106.85 697.25 89.8 750 66C816 36.23 832.49 67.17 900 42.86C924.15 34.17 909.51 6.81 933.33 0C984.51 -14.62 991.66 0 1050 0C1125 0 1125 0 1200 0C1275 0 1350 -14.44 1350 0C1350 15.56 1276.17 33.34 1200 60C1126.17 85.84 1120.63 74.18 1050 105C1017.51 119.18 993.75 123.22 993.75 150C993.75 187.38 1016.32 196.74 1050 233.33C1085.36 271.74 1091.85 265.58 1131.82 300C1166.85 330.16 1159.35 358.65 1200 362.5C1268.44 368.99 1297.1 297.55 1350 320.69C1397.1 341.3 1384.48 383.09 1400 450C1416.87 522.74 1432.26 547.54 1414.77 600C1407.26 622.54 1382.39 600 1350 600C1275 600 1275 600 1200 600C1169.62 600 1164.63 613.26 1139.24 600C1089.63 574.09 1101.76 547.63 1050 521.67C982.14 487.63 973.92 476.4 900 480C823.92 483.71 827.47 521.13 750 536.3C677.47 550.5 674.76 533.81 600 538.73C524.76 543.68 523.56 540.58 450 556.03C377.73 571.21 379.34 579.18 308.33 600C304.34 601.17 304.16 600 300 600C296.43 600 294.12 603.23 292.86 600C264.95 528.23 239.36 519.15 241.67 450C242.93 412.33 272.02 419.19 300 386.36C335.94 344.19 357.35 350.13 369.51 300C386.02 231.95 375.23 222.01 357.35 150C340.47 82.01 330.04 84.27 300 20" stroke="rgba(221, 221, 221, 0.38)" stroke-width="2"></path><path d="M1438.89 150C1390.65 77.65 1333.58 40.32 1350 0C1364.13 -34.68 1425 0 1500 0C1516.88 0 1527.65 -13.5 1533.75 0C1561.55 61.5 1577.99 82.12 1567.81 150C1561.12 194.62 1532.94 225 1500 225C1468.48 225 1465.65 190.15 1438.89 150" stroke="rgba(221, 221, 221, 0.38)" stroke-width="2"></path><path d="M1800 58.12C1766.28 25.1 1725 16.23 1725 0C1725 -12.83 1762.5 0 1800 0C1845.59 0 1849.97 -12.68 1891.18 0C1924.97 10.4 1919.28 46.15 1950 46.15C1986.19 46.15 1984.5 12.46 2025 0C2059.5 -10.61 2087.5 -25 2100 0C2125 50 2100 75 2100 150C2100 225 2100 225 2100 300C2100 309.58 2108.49 318.07 2100 319.15C2033.49 327.61 2009.4 287.83 1950 319.09C1885.09 353.25 1892.99 380.1 1851.37 450C1817.99 506.04 1828.27 511.92 1800 570.97C1792.36 586.92 1795.68 596.88 1779.55 600C1720.68 611.39 1714.78 600 1650 600C1617.61 600 1585.23 615.9 1585.23 600C1585.23 573.99 1613.23 553.8 1650 516.18C1686.53 478.8 1709.3 494.1 1731.82 450C1764.49 386.01 1734.92 368.45 1760.38 300C1769.01 276.79 1784.13 286.87 1800 266.67C1843.04 211.87 1878.19 206.09 1878.19 150C1878.19 101.82 1842.88 100.1 1800 58.12" stroke="rgba(221, 221, 221, 0.38)" stroke-width="2"></path><path d="M123.33 300C123.33 278.1 133.93 255.56 150 255.56C169.49 255.56 194.44 278.36 194.44 300C194.44 320.58 169.71 340 150 340C134.15 340 123.33 320.32 123.33 300" stroke="rgba(221, 221, 221, 0.38)" stroke-width="2"></path><path d="M0 379.29C27.82 379.29 90 414.16 90 450C90 486.46 27.53 523.88 0 523.88C-17.47 523.88 0 486.94 0 450C0 414.64 -17.18 379.29 0 379.29" stroke="rgba(221, 221, 221, 0.38)" stroke-width="2"></path><path d="M2000.81 600C2000.81 579.14 2069.06 525 2100 525C2118.66 525 2121.35 583.85 2100 600C2071.76 621.35 2000.81 616.64 2000.81 600" stroke="rgba(221, 221, 221, 0.38)" stroke-width="2"></path><path d="M412.5 150C412.5 120.33 430.66 96.88 450 96.88C469.98 96.88 491.13 119.84 491.13 150C491.13 210.15 469.74 277.5 450 277.5C430.42 277.5 412.5 210.64 412.5 150" stroke="rgba(221, 221, 221, 0.38)" stroke-width="2"></path><path d="M740.63 150C740.63 145.38 743.66 141 750 141C823.34 141 900 145.25 900 150C900 154.75 823.03 160 750 160C743.34 160 740.63 154.88 740.63 150" stroke="rgba(221, 221, 221, 0.38)" stroke-width="2"></path><path d="M1050 30C1029.05 28.86 1016.67 8.6 1016.67 0C1016.67 -6.4 1033.34 0 1050 0C1125 0 1125 0 1200 0C1212.5 0 1225 -2.41 1225 0C1225 2.59 1213.22 7.73 1200 10C1125.72 22.73 1120.71 33.86 1050 30" stroke="rgba(221, 221, 221, 0.38)" stroke-width="2"></path><path d="M1485.19 150C1485.19 126.48 1492.22 100 1500 100C1507.85 100 1516.44 126.74 1516.44 150C1516.44 160.83 1507.99 168.18 1500 168.18C1492.36 168.18 1485.19 160.57 1485.19 150" stroke="rgba(221, 221, 221, 0.38)" stroke-width="2"></path><path d="M1800 11.25C1792.48 11.25 1785.48 3.14 1785.48 0C1785.48 -2.48 1792.74 0 1800 0C1808.82 0 1817.65 -2.57 1817.65 0C1817.65 3.05 1808.57 11.25 1800 11.25" stroke="rgba(221, 221, 221, 0.38)" stroke-width="2"></path><path d="M1918.09 150C1918.09 125.16 1925.89 115.45 1950 103.85C2016.85 71.7 2052 47.73 2100 62.5C2127 70.81 2100 106.25 2100 150C2100 170.19 2115.51 182.22 2100 190.38C2040.51 221.69 2008.69 241.98 1950 228.95C1917.73 221.79 1918.09 187.71 1918.09 150" stroke="rgba(221, 221, 221, 0.38)" stroke-width="2"></path><path d="M886.96 300C886.96 226.36 888.06 150 900 150C912.22 150 935.29 231.87 935.29 300C935.29 318.87 914.73 324 900 324C890.57 324 886.96 313.36 886.96 300" stroke="rgba(221, 221, 221, 0.38)" stroke-width="2"></path><path d="M0 432.86C6.74 432.86 21.82 441.31 21.82 450C21.82 458.84 6.68 467.91 0 467.91C-4.23 467.91 0 458.96 0 450C0 441.43 -4.17 432.86 0 432.86" stroke="rgba(221, 221, 221, 0.38)" stroke-width="2"></path><path d="M361.11 450C361.11 398.71 394.07 331.97 450 323.68C513.51 314.26 519.2 392.2 600 414.58C669.2 433.75 679.12 395.22 750 406.78C787.67 412.93 817.11 429.94 817.11 450C817.11 469.01 786.39 478.91 750 484.93C677.84 496.87 674.98 484.31 600 485.92C524.98 487.53 522.25 502.24 450 491.38C402.8 484.28 361.11 482.56 361.11 450" stroke="rgba(221, 221, 221, 0.38)" stroke-width="2"></path><path d="M980.77 450C980.77 415.11 1012.18 362.9 1050 362.9C1093.34 362.9 1143.1 416.87 1143.1 450C1143.1 475.42 1095.82 480 1050 480C1014.66 480 980.77 473.66 980.77 450" stroke="rgba(221, 221, 221, 0.38)" stroke-width="2"></path><path d="M1186.71 600C1186.71 576.14 1179.27 560.71 1200 541.67C1260.91 485.71 1303.78 434.34 1350 450C1389.86 463.51 1372.16 534.56 1372.16 600C1372.16 609.56 1361.08 600 1350 600C1275 600 1275 600 1200 600C1193.36 600 1186.71 605.3 1186.71 600" stroke="rgba(221, 221, 221, 0.38)" stroke-width="2"></path><path d="M1627.84 600C1627.84 591.1 1636.47 571.32 1650 571.32C1669.71 571.32 1694.32 592.2 1694.32 600C1694.32 606.54 1672.16 600 1650 600C1638.92 600 1627.84 605.44 1627.84 600" stroke="rgba(221, 221, 221, 0.38)" stroke-width="2"></path><path d="M2061.29 600C2061.29 591.86 2087.93 570.73 2100 570.73C2107.28 570.73 2108.33 593.7 2100 600C2088.98 608.33 2061.29 606.49 2061.29 600" stroke="rgba(221, 221, 221, 0.38)" stroke-width="2"></path></g><defs><mask id="SvgjsMask1012"><rect width="2000" height="600" fill="#ffffff"></rect></mask></defs></svg>